Cover:
=================================================================================== 
http://img87.imageshack.us/img87/241/theshawshankredemption.jpg
===================================================================================

Storyline:
===================================================================================
Andy Dufresne is a young and successful banker whose life changes drastically when he is convicted and sentenced to life imprisonment for the murder of his wife and her lover. Set in the 1940's, the film shows how Andy, with the help of his friend Red, the prison entrepreneur, turns out to be a most unconventional prisoner.
===================================================================================

Cast:
===================================================================================
Tim Robbins as Andy Dufresne
Morgan Freeman as Ellis Boyd "Red" Redding
Bob Gunton as Warden Samuel Norton
William Sadler as Heywood
Clancy Brown as Capt. Byron Hadley
Gil Bellows as Tommy Williams
Mark Rolston as Bogs Diamond
James Whitmore as Brooks Hatlen
===================================================================================

Video Specs:
===================================================================================
Format                           : AVC
Format/Info                      : Advanced Video Codec
Format profile                   : High@L2.1
Format settings, CABAC           : Yes
Format settings, ReFrames        : 4 frames
Format settings, GOP             : M=4, N=32
Codec ID                         : avc1
Codec ID/Info                    : Advanced Video Coding
Duration                         : 2h 18mn
Bit rate mode                    : Variable
Bit rate                         : 652 Kbps
Maximum bit rate                 : 3 159 Kbps
Width                            : 480 pixels
Height                           : 272 pixels
Display aspect ratio             : 1.654
Original display aspect ratio    : 1.658
Frame rate mode                  : Constant
Frame rate                       : 23.976 fps
Color space                      : YUV
Chroma subsampling               : 4:2:0
Bit depth                        : 8 bits
Scan type                        : Progressive
Bits/(Pixel*Frame)               : 0.208
Stream size                      : 648 MiB (86%)
===================================================================================

Audio Specs:
===================================================================================
Format                           : MPEG Audio
Format version                   : Version 1
Format profile                   : Layer 3
Mode                             : Joint stereo
Mode extension                   : MS Stereo
Codec ID                         : 6B
Duration                         : 2h 18mn
Bit rate mode                    : Variable
Bit rate                         : 107 Kbps
Minimum bit rate                 : 32.0 Kbps
Maximum bit rate                 : 154 Kbps
Channel(s)                       : 2 channels
Sampling rate                    : 48.0 KHz
Stream size                      : 106 MiB (14%)
===================================================================================

Screens:
=================================================================================== 
http://img143.imageshack.us/img143/7673/vlcsnap2010113008h28m02.png 
http://img683.imageshack.us/img683/483/vlcsnap2010113008h28m31.png 
http://img547.imageshack.us/img547/9481/vlcsnap2010113008h28m44.png 
http://img7.imageshack.us/img7/2278/vlcsnap2010113008h29m13.png 
http://img28.imageshack.us/img28/3916/vlcsnap2010113008h29m31.png 
http://img808.imageshack.us/img808/4422/vlcsnap2010113008h30m35.png 
http://img263.imageshack.us/img263/328/vlcsnap2010113008h30m45.png 
http://img843.imageshack.us/img843/4938/vlcsnap2010113008h31m50.png 
http://img19.imageshack.us/img19/1676/vlcsnap2010113008h32m34.png
===================================================================================
Enjoy!!